<svg id="svg" version="1.1" xmlns="http://www.w3.org/2000/svg" xmlns:xlink="http://www.w3.org/1999/xlink" width="400" height="400" viewBox="0, 0, 400,400"><g id="svgg"><path id="path0" d="M40.487 184.230 L 41.000 328.459 92.000 344.195 C 153.709 363.234,141.932 363.254,204.493 344.000 L 256.479 328.000 308.239 328.000 L 360.000 328.000 360.000 184.000 L 360.000 40.000 303.732 40.000 L 247.463 40.000 197.732 55.321 L 148.000 70.641 98.268 55.321 C 70.916 46.894,46.610 40.000,44.255 40.000 L 39.974 40.000 40.487 184.230 M352.000 61.778 C 352.000 73.671,351.521 75.518,348.501 75.278 C 343.244 74.860,342.699 83.193,347.895 84.552 C 353.155 85.927,353.208 92.287,348.000 97.000 C 345.800 98.991,344.000 101.915,344.000 103.497 C 344.000 105.080,345.800 106.845,348.000 107.421 C 351.889 108.437,352.000 110.149,352.000 169.011 L 352.000 229.555 345.193 230.832 C 338.058 232.170,335.294 235.622,337.935 239.895 C 338.980 241.586,341.578 241.971,345.750 241.055 L 352.000 239.682 352.000 279.841 L 352.000 320.000 304.000 320.000 L 256.000 320.000 256.000 291.755 C 256.000 267.831,256.426 263.864,258.788 265.824 C 262.760 269.120,278.000 262.912,278.000 257.997 C 278.000 252.590,273.513 251.964,264.310 256.084 L 256.000 259.804 256.000 153.902 L 256.000 48.000 304.000 48.000 L 352.000 48.000 352.000 61.778 M123.500 73.865 L 144.000 80.172 144.000 102.715 L 144.000 125.259 136.865 128.662 C 125.328 134.163,128.727 143.839,140.500 139.008 C 143.751 137.674,143.995 139.902,143.936 170.286 C 143.883 197.920,143.460 202.456,141.216 199.500 C 139.755 197.575,136.633 196.000,134.280 196.000 C 127.663 196.000,128.991 202.699,137.000 209.732 L 144.000 215.878 144.000 258.816 L 144.000 301.755 134.893 303.121 C 121.723 305.096,122.256 313.299,135.500 312.464 L 144.000 311.927 144.000 330.711 L 144.000 349.495 116.500 340.968 C 101.375 336.278,79.775 329.603,68.500 326.135 L 48.000 319.828 48.000 310.101 L 48.000 300.374 55.147 302.568 C 60.806 304.305,62.641 304.199,63.962 302.062 C 66.683 297.658,64.276 294.716,55.895 292.205 L 48.000 289.839 48.000 247.150 L 48.000 204.460 53.000 201.184 C 55.750 199.382,58.000 196.129,58.000 193.954 C 58.000 191.070,56.647 190.000,53.000 190.000 L 48.000 190.000 48.000 150.139 C 48.000 110.325,48.005 110.277,52.500 109.639 C 54.975 109.288,57.000 107.650,57.000 106.000 C 57.000 104.350,54.975 102.112,52.500 101.026 C 48.189 99.134,48.000 98.032,48.000 74.778 L 48.000 50.505 75.500 59.032 C 90.625 63.722,112.225 70.397,123.500 73.865 M248.000 66.962 C 248.000 83.814,247.964 83.932,242.500 85.238 C 235.783 86.842,232.000 89.650,232.000 93.031 C 232.000 96.744,237.297 98.168,243.017 95.993 L 248.000 94.099 248.000 157.920 L 248.000 221.741 241.000 224.272 C 235.636 226.212,234.000 227.930,234.000 231.624 C 234.000 236.051,234.573 236.338,241.000 235.132 L 248.000 233.819 247.980 248.409 L 247.959 263.000 239.980 266.351 C 234.315 268.731,232.000 270.907,232.000 273.851 C 232.000 278.486,237.572 279.440,244.131 275.930 C 247.852 273.939,248.000 274.739,248.000 296.844 L 248.000 319.828 227.500 326.135 C 216.225 329.603,194.625 336.278,179.500 340.968 L 152.000 349.495 152.000 287.747 C 152.000 253.786,152.675 226.029,153.500 226.064 C 154.325 226.099,156.747 227.449,158.882 229.064 C 164.791 233.533,170.002 232.799,169.987 227.500 C 169.975 222.974,160.788 216.000,154.838 216.000 C 152.443 216.000,152.000 205.400,152.000 148.111 L 152.000 80.222 175.500 72.959 C 194.518 67.081,245.473 50.969,247.500 50.192 C 247.775 50.086,248.000 57.633,248.000 66.962 M317.333 75.333 C 312.483 80.184,316.299 84.000,326.000 84.000 C 335.333 84.000,336.000 83.667,336.000 79.000 C 336.000 74.048,321.472 71.195,317.333 75.333 M289.333 77.333 C 284.809 81.858,288.282 86.000,296.600 86.000 C 305.777 86.000,310.352 83.245,308.630 78.756 C 307.539 75.913,291.906 74.760,289.333 77.333 M267.000 79.749 C 255.608 82.173,257.378 90.816,268.998 89.506 C 280.183 88.245,283.757 85.527,280.070 81.085 C 277.361 77.820,276.490 77.731,267.000 79.749 M211.500 94.599 C 206.083 96.740,204.088 102.583,207.959 104.975 C 212.456 107.754,226.000 101.529,226.000 96.683 C 226.000 91.434,221.242 90.749,211.500 94.599 M185.500 104.599 C 179.657 106.908,177.992 113.355,182.767 115.187 C 187.712 117.085,200.000 110.607,200.000 106.102 C 200.000 101.468,194.789 100.928,185.500 104.599 M65.333 105.333 C 61.864 108.802,64.584 113.656,71.826 116.922 C 84.605 122.684,89.350 115.203,77.500 107.978 C 70.660 103.808,67.538 103.129,65.333 105.333 M329.128 117.010 C 323.347 124.589,323.479 130.074,329.437 129.889 C 334.022 129.747,342.498 119.064,341.625 114.528 C 340.452 108.441,334.809 109.562,329.128 117.010 M161.500 116.141 C 148.541 122.973,152.876 130.918,166.267 124.879 C 172.171 122.217,174.036 120.290,173.594 117.311 C 172.774 111.791,170.220 111.544,161.500 116.141 M89.333 121.333 C 85.347 125.320,94.032 140.000,100.376 140.000 C 105.757 140.000,104.953 131.987,98.919 125.480 C 93.719 119.871,91.678 118.989,89.333 121.333 M178.358 163.798 C 159.326 203.174,157.181 210.000,163.843 210.000 C 166.656 210.000,169.430 206.216,174.197 195.875 L 180.707 181.750 183.817 186.875 C 187.653 193.197,192.481 193.430,196.756 187.500 L 200.000 183.000 203.244 187.500 C 207.519 193.430,212.347 193.197,216.183 186.875 L 219.293 181.750 225.803 195.875 C 232.569 210.553,240.109 215.696,239.914 205.500 C 239.750 196.923,205.130 127.060,200.720 126.408 C 197.339 125.908,193.861 131.724,178.358 163.798 M313.431 139.809 C 308.784 147.676,308.949 154.000,313.802 154.000 C 318.165 154.000,326.774 140.901,325.166 136.711 C 323.380 132.058,317.017 133.738,313.431 139.809 M110.653 143.069 C 102.047 146.890,101.596 148.153,105.393 157.819 C 109.577 168.471,117.313 169.155,116.534 158.804 C 116.162 153.869,117.105 152.139,121.176 150.284 C 124.372 148.828,126.037 146.653,125.622 144.478 C 124.776 140.039,118.753 139.472,110.653 143.069 M207.529 157.248 C 213.234 169.525,214.037 176.000,209.856 176.000 C 208.913 176.000,207.177 174.200,206.000 172.000 C 203.159 166.692,197.241 166.926,193.332 172.500 C 186.507 182.232,186.092 172.244,192.721 157.820 C 200.424 141.061,200.016 141.077,207.529 157.248 M89.476 159.064 C 81.661 164.375,79.871 169.309,85.041 171.292 C 89.610 173.046,102.195 163.790,101.542 159.157 C 100.736 153.441,97.785 153.418,89.476 159.064 M302.580 160.500 C 295.848 169.313,295.024 180.000,301.077 180.000 C 305.596 180.000,312.782 164.353,309.874 160.848 C 306.965 157.343,305.061 157.252,302.580 160.500 M116.126 172.848 C 112.809 176.845,120.736 192.534,125.605 191.606 C 130.493 190.675,130.696 184.017,126.064 176.500 C 121.643 169.326,119.656 168.595,116.126 172.848 M65.211 176.877 C 58.980 181.972,59.105 188.056,65.437 187.928 C 71.038 187.815,80.775 178.904,79.351 175.195 C 77.618 170.678,71.971 171.350,65.211 176.877 M285.061 191.098 C 279.342 198.596,279.500 204.009,285.437 203.986 C 289.893 203.969,298.866 191.143,297.292 187.041 C 295.376 182.046,290.810 183.560,285.061 191.098 M265.500 210.647 C 259.538 215.529,258.292 221.470,262.863 223.224 C 267.271 224.916,278.000 215.985,278.000 210.624 C 278.000 204.645,272.819 204.654,265.500 210.647 M176.649 231.194 C 174.824 235.949,181.142 240.000,190.382 240.000 C 198.049 240.000,201.999 233.125,195.500 231.093 C 185.424 227.944,177.881 227.984,176.649 231.194 M206.073 232.912 C 202.317 237.438,205.441 240.000,214.718 240.000 C 223.788 240.000,228.346 237.228,226.630 232.756 C 225.180 228.978,209.238 229.099,206.073 232.912 M315.500 238.281 C 309.816 240.402,307.936 246.807,312.500 248.498 C 317.757 250.445,331.000 245.032,331.000 240.936 C 331.000 236.297,324.020 235.102,315.500 238.281 M289.500 246.325 C 284.150 248.278,281.948 254.496,285.769 256.857 C 289.492 259.158,302.988 252.702,303.639 248.309 C 304.360 243.448,299.315 242.740,289.500 246.325 M214.591 279.448 C 203.946 284.749,203.953 293.951,214.601 291.279 C 223.442 289.060,229.297 282.973,226.190 279.229 C 222.990 275.373,222.763 275.378,214.591 279.448 M186.500 292.441 C 182.019 294.602,180.401 300.776,183.769 302.857 C 187.492 305.158,200.988 298.702,201.639 294.309 C 202.367 289.399,194.756 288.459,186.500 292.441 M70.768 300.884 C 68.914 305.714,71.830 307.779,82.581 309.253 C 91.661 310.497,96.761 305.178,90.309 301.191 C 84.896 297.846,72.011 297.643,70.768 300.884 M160.000 299.790 C 150.599 302.404,153.485 309.070,163.809 308.591 C 173.596 308.136,177.136 305.845,175.328 301.134 C 174.080 297.880,168.595 297.399,160.000 299.790 M98.672 305.134 C 96.890 309.776,99.963 311.747,110.008 312.408 C 117.864 312.925,119.076 312.466,119.604 308.771 C 120.524 302.324,101.048 298.941,98.672 305.134 " stroke="none" fill="#000000" fill-rule="evenodd"></path></g></svg>